<svg
      xmlns="http://www.w3.org/2000/svg"
      width="1438"
      height="1616"
      fill="none"
      viewBox="0 0 1438 1616"
    >
      <g opacity="0.3">
        <path
          fill="#D90816"
          fillRule="evenodd"
          d="M1436.52 0v474.373l-281.24 73.772 258.64-94.707L1432.98.835 1432 .78l-19.03 451.821-269.09 98.534-13.46 3.531 259.91-123.056 38.12-429.938-.97-.114-38.06 429.266-264.78 125.358-11.35 2.978-.06 2.422-7.22 3.419-11.15 4.082-.07 1.232-14.62 6.923 286.58-167.452 57.18-407.274-.97-.18-57.1 406.708-307.84 179.873L941.116 1343.7 185.381 2586.98l.805.64 755.858-1243.48L1058.9 589.664l17.5-10.223-83.985 793.949-743.641 1252.76.811.63L993.361 1373.8l83.989-794.007 17.36-8.221-50.99 831.508-731.553 1262.24.817.62 731.696-1262.48 51.05-832.368 10.62-5.03 6.84-2.506-18.17 869.214-719.46 1271.72.823.61 719.607-1271.98 18.19-869.927 29.96-10.968 293.36-76.952V0h-.98zm-311.58 557.261l7.8-2.046-15.35 5.62 7.55-3.574zm-5.78 1.516l-4.93 2.335.02-1.047 4.91-1.288z"
          clipRule="evenodd"
        ></path>
        <path
          fill="url(#paint0_linear_1182_17990)"
          fillRule="evenodd"
          d="M1436.52 0v474.373l-281.24 73.772 258.64-94.707L1432.98.835 1432 .78l-19.03 451.821-269.09 98.534-13.46 3.531 259.91-123.056 38.12-429.938-.97-.114-38.06 429.266-264.78 125.358-11.35 2.978-.06 2.422-7.22 3.419-11.15 4.082-.07 1.232-14.62 6.923 286.58-167.452 57.18-407.274-.97-.18-57.1 406.708-307.84 179.873L941.116 1343.7 185.381 2586.98l.805.64 755.858-1243.48L1058.9 589.664l17.5-10.223-83.985 793.949-743.641 1252.76.811.63L993.361 1373.8l83.989-794.007 17.36-8.221-50.99 831.508-731.553 1262.24.817.62 731.696-1262.48 51.05-832.368 10.62-5.03 6.84-2.506-18.17 869.214-719.46 1271.72.823.61 719.607-1271.98 18.19-869.927 29.96-10.968 293.36-76.952V0h-.98zm-311.58 557.261l7.8-2.046-15.35 5.62 7.55-3.574zm-5.78 1.516l-4.93 2.335.02-1.047 4.91-1.288z"
          clipRule="evenodd"
        ></path>
        <path
          fill="#D90816"
          d="M1418.44 3.105l-76.13 384.148-302.72 211.568L889.817 1314 121.988 2547.81l.799.65 767.939-1233.98 149.724-714.938 302.72-211.573L1419.4 3.356l-.96-.251z"
        ></path>
        <path
          fill="url(#paint1_linear_1182_17990)"
          d="M1418.44 3.105l-76.13 384.148-302.72 211.568L889.817 1314 121.988 2547.81l.799.65 767.939-1233.98 149.724-714.938 302.72-211.573L1419.4 3.356l-.96-.251z"
        ></path>
        <path
          fill="#D90816"
          d="M1413.93 3.874l-95.18 361.585-297.58 243.265-182.651 675.586L58.595 2508.64l.792.66 780.021-1224.48 182.602-675.397 297.58-243.268 95.28-361.954-.94-.327z"
        ></path>
        <path
          fill="url(#paint2_linear_1182_17990)"
          d="M1413.93 3.874l-95.18 361.585-297.58 243.265-182.651 675.586L58.595 2508.64l.792.66 780.021-1224.48 182.602-675.397 297.58-243.268 95.28-361.954-.94-.327z"
        ></path>
        <path
          fill="#D90816"
          d="M1409.42 4.641l-114.22 339.02-292.46 274.962-215.518 635.987L0 2462.11v1.88l788.088-1208.82 215.472-635.862 292.46-274.961L1410.33 5.049l-.91-.408z"
        ></path>
        <path
          fill="url(#paint3_linear_1182_17990)"
          d="M1409.42 4.641l-114.22 339.02-292.46 274.962-215.518 635.987L0 2462.11v1.88l788.088-1208.82 215.472-635.862 292.46-274.961L1410.33 5.049l-.91-.408z"
        ></path>
        <path
          fill="#D90816"
          fillRule="evenodd"
          d="M0 828.83l17.824-19.64 584.202-34.953 48.391-5.87 46.053-8.707 34.44-9.096 210.837-734.17h391.203l9.88-.586 8.21-1.026v.085l4.49-.888.06.436 4.43-1.236.17.806 4.31-1.602.31 1.074-304.52 112.978-240.58 590.519 17.151-9.386 246.289-560.233 285.84-135.743.37 1.042-285.5 135.584-246.274 560.203-511.408 279.842L0 1397.24v-1.67l325.584-408.231L726.58 767.914l-22.848 1.367-428.878 189.324L0 1295.81v-1.65l274.292-336.516 426.273-188.173-22.244 1.331L223.53 928.945 0 1197.31v-1.64l222.999-267.719 451.228-156.904-21.313 1.275-480.707 126.963L0 1101.62V1100l171.706-201.741 475.541-125.598-19.742 1.181-506.621 95.78L0 1008.64v-1.6l120.413-138.472 498.243-94.197-16.554.991-532.54 64.598L0 918.262v-1.58l69.119-77.803 514.526-62.413L18.24 810.295 0 830.394v-1.564zm818.427-111.388l-16.361 7.222 234.654-620.012 320.11-89.42-297.25 110.28-241.153 591.93zm-9.406 5.361l-7.504 3.312-.379 1.001 7.883-4.313zm-8.24 2.429l-16.523 7.293L1013.15 82.87l333.9-66.068-311.03 86.886-235.239 621.544zm-17.777 7.847l-1.524.673-14.606 5.079L989.588 61.087l347.062-43.373-324.2 64.15L783.004 733.08zm-16.568 7.083l2.465-.857-2.554 1.127.089-.27zm-1.184.412l-.132.4-3.129 1.381-7.744 2.045 11.005-3.826zm-16.48 6.43l6.69-1.767-7.111 3.139.421-1.372zm-1.133.299l-.492 1.605-4.642 2.049-11.287 2.134.218-.759 8.964-3.117 7.239-1.912zm-16.768 6.997l7.103-1.343-7.693 3.396.59-2.053zm-1.093.206l-.681 2.369-6.082 2.685-18.991 2.304 15.684-5.454 10.07-1.904zm-1.078 3.754l-1.91.842 1.728-.209.182-.633zm-29.687 5.346l20.458-2.481-15.945 7.039-21.28 1.273 16.767-5.831zm24.234-2.939l-16.554 7.307 19.553-1.17 1.934-6.736-4.933.599zm6.005-.729l15.294-1.855-17.514 9.584 2.22-7.729zm33.077-11.586l-16.791 9.189 1.959-6.385 14.832-2.804zm-15.937 3.013l-3.629.686-12.879 5.686-.295 1.026 15.094-1.831 1.709-5.567zm1.53-1.591l-.052.168 15.25-2.883 1.384-4.21-2.225.588-14.357 6.337zm16.133-2.366l1.598-4.863 14.089-3.721-15.687 8.584zm32.177-17.607l-13.644 7.466 1.092-3.102 12.552-4.364zm-13.759 4.784l-.674.234-12.991 5.735 12.748-3.367.917-2.602zm17.758-7.902l-5.853 2.583 5.614-1.952.239-.631zm-106.424 37.555l-15.656 5.444-19.707 1.179 16.34-4.316 19.023-2.307zm-27.13 3.291l-13.9 3.671-16.529.989 14.302-2.704 16.127-1.956zm-33.004 4.003l-6.274 1.186-6.916.414 13.19-1.6zm40.948-6.101l-7.327.888 13.941-2.635-6.614 1.747zm8.107-.984l13.931-3.679 15.62-2.953-13.461 4.681-16.09 1.951zm47.397-11.15l-3.21.607 3.372-1.172-.162.565zm-10.639 2.012l6.815-2.37-14.407 3.805 7.592-1.435zm222.97-737.787L732.029 750.268l8.119-2.144 8.104-2.818L965.315 38.217l348.635-20.695H942.456zm23.566 21.783L749.418 744.901l16.271-5.658L988.883 60.041 1325.61 17.96 966.022 39.305z"
          clipRule="evenodd"
        ></path>
        <path
          fill="url(#paint4_linear_1182_17990)"
          fillRule="evenodd"
          d="M0 828.83l17.824-19.64 584.202-34.953 48.391-5.87 46.053-8.707 34.44-9.096 210.837-734.17h391.203l9.88-.586 8.21-1.026v.085l4.49-.888.06.436 4.43-1.236.17.806 4.31-1.602.31 1.074-304.52 112.978-240.58 590.519 17.151-9.386 246.289-560.233 285.84-135.743.37 1.042-285.5 135.584-246.274 560.203-511.408 279.842L0 1397.24v-1.67l325.584-408.231L726.58 767.914l-22.848 1.367-428.878 189.324L0 1295.81v-1.65l274.292-336.516 426.273-188.173-22.244 1.331L223.53 928.945 0 1197.31v-1.64l222.999-267.719 451.228-156.904-21.313 1.275-480.707 126.963L0 1101.62V1100l171.706-201.741 475.541-125.598-19.742 1.181-506.621 95.78L0 1008.64v-1.6l120.413-138.472 498.243-94.197-16.554.991-532.54 64.598L0 918.262v-1.58l69.119-77.803 514.526-62.413L18.24 810.295 0 830.394v-1.564zm818.427-111.388l-16.361 7.222 234.654-620.012 320.11-89.42-297.25 110.28-241.153 591.93zm-9.406 5.361l-7.504 3.312-.379 1.001 7.883-4.313zm-8.24 2.429l-16.523 7.293L1013.15 82.87l333.9-66.068-311.03 86.886-235.239 621.544zm-17.777 7.847l-1.524.673-14.606 5.079L989.588 61.087l347.062-43.373-324.2 64.15L783.004 733.08zm-16.568 7.083l2.465-.857-2.554 1.127.089-.27zm-1.184.412l-.132.4-3.129 1.381-7.744 2.045 11.005-3.826zm-16.48 6.43l6.69-1.767-7.111 3.139.421-1.372zm-1.133.299l-.492 1.605-4.642 2.049-11.287 2.134.218-.759 8.964-3.117 7.239-1.912zm-16.768 6.997l7.103-1.343-7.693 3.396.59-2.053zm-1.093.206l-.681 2.369-6.082 2.685-18.991 2.304 15.684-5.454 10.07-1.904zm-1.078 3.754l-1.91.842 1.728-.209.182-.633zm-29.687 5.346l20.458-2.481-15.945 7.039-21.28 1.273 16.767-5.831zm24.234-2.939l-16.554 7.307 19.553-1.17 1.934-6.736-4.933.599zm6.005-.729l15.294-1.855-17.514 9.584 2.22-7.729zm33.077-11.586l-16.791 9.189 1.959-6.385 14.832-2.804zm-15.937 3.013l-3.629.686-12.879 5.686-.295 1.026 15.094-1.831 1.709-5.567zm1.53-1.591l-.052.168 15.25-2.883 1.384-4.21-2.225.588-14.357 6.337zm16.133-2.366l1.598-4.863 14.089-3.721-15.687 8.584zm32.177-17.607l-13.644 7.466 1.092-3.102 12.552-4.364zm-13.759 4.784l-.674.234-12.991 5.735 12.748-3.367.917-2.602zm17.758-7.902l-5.853 2.583 5.614-1.952.239-.631zm-106.424 37.555l-15.656 5.444-19.707 1.179 16.34-4.316 19.023-2.307zm-27.13 3.291l-13.9 3.671-16.529.989 14.302-2.704 16.127-1.956zm-33.004 4.003l-6.274 1.186-6.916.414 13.19-1.6zm40.948-6.101l-7.327.888 13.941-2.635-6.614 1.747zm8.107-.984l13.931-3.679 15.62-2.953-13.461 4.681-16.09 1.951zm47.397-11.15l-3.21.607 3.372-1.172-.162.565zm-10.639 2.012l6.815-2.37-14.407 3.805 7.592-1.435zm222.97-737.787L732.029 750.268l8.119-2.144 8.104-2.818L965.315 38.217l348.635-20.695H942.456zm23.566 21.783L749.418 744.901l16.271-5.658L988.883 60.041 1325.61 17.96 966.022 39.305z"
          clipRule="evenodd"
        ></path>
        <path
          fill="#D90816"
          d="M0 1500.03l376.875-483 478.42-319.336 251.415-528.537 266.76-158.353.45 1.002-266.49 158.195-251.405 528.51-478.522 319.409L0 1501.72v-1.69z"
        ></path>
        <path
          fill="url(#paint5_linear_1182_17990)"
          d="M0 1500.03l376.875-483 478.42-319.336 251.415-528.537 266.76-158.353.45 1.002-266.49 158.195-251.405 528.51-478.522 319.409L0 1501.72v-1.69z"
        ></path>
        <path
          fill="#D90816"
          d="M0 1607.66l428.129-560.88.038-.05.049-.04 445.512-358.872 256.552-496.839 247.68-180.957.52.952L1131 191.787 874.465 688.603 428.828 1047.58 0 1609.37v-1.71z"
        ></path>
        <path
          fill="url(#paint6_linear_1182_17990)"
          d="M0 1607.66l428.129-560.88.038-.05.049-.04 445.512-358.872 256.552-496.839 247.68-180.957.52.952L1131 191.787 874.465 688.603 428.828 1047.58 0 1609.37v-1.71z"
        ></path>
        <path
          fill="#D90816"
          d="M0 1718.59l479.459-642.16L892.16 677.941l261.63-465.061.05-.081 228.6-203.554.6.892-228.47 203.436-261.625 465.052-.04.071-412.753 398.534L0 1720.33v-1.74z"
        ></path>
        <path
          fill="url(#paint7_linear_1182_17990)"
          d="M0 1718.59l479.459-642.16L892.16 677.941l261.63-465.061.05-.081 228.6-203.554.6.892-228.47 203.436-261.625 465.052-.04.071-412.753 398.534L0 1720.33v-1.74z"
        ></path>
        <path
          fill="#D90816"
          d="M0 1832.98l530.751-726.85.015-.02 379.826-438.048 266.778-433.399.03-.047.04-.039L1386.93 8.471l.67.823-209.46 226.067-266.794 433.43L531.49 1106.87l-.028.03L0 1834.73v-1.75z"
        ></path>
        <path
          fill="url(#paint8_linear_1182_17990)"
          d="M0 1832.98l530.751-726.85.015-.02 379.826-438.048 266.778-433.399.03-.047.04-.039L1386.93 8.471l.67.823-209.46 226.067-266.794 433.43L531.49 1106.87l-.028.03L0 1834.73v-1.75z"
        ></path>
        <path
          fill="#D90816"
          d="M0 1950.95l582.043-815.12.002-.01 346.972-477.632.011-.015 271.922-401.727.01-.014.01-.013L1391.42 7.703l.74.745-190.43 248.69-.02.027-271.918 401.716-.005.007-.005.008-346.98 477.644h-.003L0 1952.73v-1.78z"
        ></path>
        <path
          fill="url(#paint9_linear_1182_17990)"
          d="M0 1950.95l582.043-815.12.002-.01 346.972-477.632.011-.015 271.922-401.727.01-.014.01-.013L1391.42 7.703l.74.745-190.43 248.69-.02.027-271.918 401.716-.005.007-.005.008-346.98 477.644h-.003L0 1952.73v-1.78z"
        ></path>
        <path
          fill="#D90816"
          d="M0 2072.68l633.328-907.14.02-.03 314.105-517.215 277.057-370.032.02-.036L1395.91 6.936l.8.663-171.42 271.346-.01.018-277.036 370.002-314.12 517.235-.011.01L0 2074.49v-1.81z"
        ></path>
        <path
          fill="url(#paint10_linear_1182_17990)"
          d="M0 2072.68l633.328-907.14.02-.03 314.105-517.215 277.057-370.032.02-.036L1395.91 6.936l.8.663-171.42 271.346-.01.018-277.036 370.002-314.12 517.235-.011.01L0 2074.49v-1.81z"
        ></path>
        <path
          fill="#D90816"
          d="M0 2198.33l684.632-1003.11 281.25-556.812 282.198-338.354L1400.41 6.171l.84.578-152.36 293.938-.02.055-282.198 338.35-281.209 556.728-.017.03L0 2200.16v-1.83z"
        ></path>
        <path
          fill="url(#paint11_linear_1182_17990)"
          d="M0 2198.33l684.632-1003.11 281.25-556.812 282.198-338.354L1400.41 6.171l.84.578-152.36 293.938-.02.055-282.198 338.35-281.209 556.728-.017.03L0 2200.16v-1.83z"
        ></path>
        <path
          fill="#D90816"
          d="M0 2328.08l735.926-1103.16 248.385-596.403L1271.64 321.86 1404.91 5.407l.89.492-133.36 316.644-287.324 306.655-248.348 596.312L0 2329.93v-1.85z"
        ></path>
        <path
          fill="url(#paint12_linear_1182_17990)"
          d="M0 2328.08l735.926-1103.16 248.385-596.403L1271.64 321.86 1404.91 5.407l.89.492-133.36 316.644-287.324 306.655-248.348 596.312L0 2329.93v-1.85z"
        ></path>
      </g>
      <defs>
        <linearGradient
          id="paint0_linear_1182_17990"
          x1="658.619"
          x2="1001.62"
          y1="1528.65"
          y2="1409.51"
          gradientUnits="userSpaceOnUse"
        >
          <stop stopColor="#D90816"></stop>
          <stop offset="1" stopColor="#fff" stopOpacity="0"></stop>
        </linearGradient>
        <linearGradient
          id="paint1_linear_1182_17990"
          x1="658.619"
          x2="1001.62"
          y1="1528.65"
          y2="1409.51"
          gradientUnits="userSpaceOnUse"
        >
          <stop stopColor="#D90816"></stop>
          <stop offset="1" stopColor="#fff" stopOpacity="0"></stop>
        </linearGradient>
        <linearGradient
          id="paint2_linear_1182_17990"
          x1="658.619"
          x2="1001.62"
          y1="1528.65"
          y2="1409.51"
          gradientUnits="userSpaceOnUse"
        >
          <stop stopColor="#D90816"></stop>
          <stop offset="1" stopColor="#fff" stopOpacity="0"></stop>
        </linearGradient>
        <linearGradient
          id="paint3_linear_1182_17990"
          x1="658.619"
          x2="1001.62"
          y1="1528.65"
          y2="1409.51"
          gradientUnits="userSpaceOnUse"
        >
          <stop stopColor="#D90816"></stop>
          <stop offset="1" stopColor="#fff" stopOpacity="0"></stop>
        </linearGradient>
        <linearGradient
          id="paint4_linear_1182_17990"
          x1="658.619"
          x2="1001.62"
          y1="1528.65"
          y2="1409.51"
          gradientUnits="userSpaceOnUse"
        >
          <stop stopColor="#D90816"></stop>
          <stop offset="1" stopColor="#fff" stopOpacity="0"></stop>
        </linearGradient>
        <linearGradient
          id="paint5_linear_1182_17990"
          x1="658.619"
          x2="1001.62"
          y1="1528.65"
          y2="1409.51"
          gradientUnits="userSpaceOnUse"
        >
          <stop stopColor="#D90816"></stop>
          <stop offset="1" stopColor="#fff" stopOpacity="0"></stop>
        </linearGradient>
        <linearGradient
          id="paint6_linear_1182_17990"
          x1="658.619"
          x2="1001.62"
          y1="1528.65"
          y2="1409.51"
          gradientUnits="userSpaceOnUse"
        >
          <stop stopColor="#D90816"></stop>
          <stop offset="1" stopColor="#fff" stopOpacity="0"></stop>
        </linearGradient>
        <linearGradient
          id="paint7_linear_1182_17990"
          x1="658.619"
          x2="1001.62"
          y1="1528.65"
          y2="1409.51"
          gradientUnits="userSpaceOnUse"
        >
          <stop stopColor="#D90816"></stop>
          <stop offset="1" stopColor="#fff" stopOpacity="0"></stop>
        </linearGradient>
        <linearGradient
          id="paint8_linear_1182_17990"
          x1="658.619"
          x2="1001.62"
          y1="1528.65"
          y2="1409.51"
          gradientUnits="userSpaceOnUse"
        >
          <stop stopColor="#D90816"></stop>
          <stop offset="1" stopColor="#fff" stopOpacity="0"></stop>
        </linearGradient>
        <linearGradient
          id="paint9_linear_1182_17990"
          x1="658.619"
          x2="1001.62"
          y1="1528.65"
          y2="1409.51"
          gradientUnits="userSpaceOnUse"
        >
          <stop stopColor="#D90816"></stop>
          <stop offset="1" stopColor="#fff" stopOpacity="0"></stop>
        </linearGradient>
        <linearGradient
          id="paint10_linear_1182_17990"
          x1="658.619"
          x2="1001.62"
          y1="1528.65"
          y2="1409.51"
          gradientUnits="userSpaceOnUse"
        >
          <stop stopColor="#D90816"></stop>
          <stop offset="1" stopColor="#fff" stopOpacity="0"></stop>
        </linearGradient>
        <linearGradient
          id="paint11_linear_1182_17990"
          x1="658.619"
          x2="1001.62"
          y1="1528.65"
          y2="1409.51"
          gradientUnits="userSpaceOnUse"
        >
          <stop stopColor="#D90816"></stop>
          <stop offset="1" stopColor="#fff" stopOpacity="0"></stop>
        </linearGradient>
        <linearGradient
          id="paint12_linear_1182_17990"
          x1="658.619"
          x2="1001.62"
          y1="1528.65"
          y2="1409.51"
          gradientUnits="userSpaceOnUse"
        >
          <stop stopColor="#D90816"></stop>
          <stop offset="1" stopColor="#fff" stopOpacity="0"></stop>
        </linearGradient>
      </defs>
    </svg>